<svg width="37" height="47" viewBox="0 0 485 584" fill="none" xmlns="http://www.w3.org/2000/svg">
<path d="M6.32255 85.1276C-0.337287 72.4503 -1.80307 57.6043 2.24514 43.8302C6.29335 30.056 15.5268 18.4721 27.9302 11.6068C40.3337 4.74155 54.8998 3.15232 68.4495 7.18602C81.9992 11.2197 93.4322 20.5488 100.253 33.1371C107.074 45.7254 108.729 60.5507 104.856 74.3772C100.984 88.2037 91.8989 99.9087 79.584 106.937C67.2691 113.966 52.7244 115.748 39.1244 111.893C25.5245 108.039 13.9736 98.862 6.99296 86.365" fill="#784421"/>
<path d="M150.338 54.5244H146.378V372.275H150.338V54.5244Z" fill="#A05A2C"/>
<path d="M188.063 51.5469H184.104V369.297H188.063V51.5469Z" fill="#A05A2C"/>
<path d="M243.638 49.0203H238.979V471.763H243.638V49.0203Z" fill="#A05A2C"/>
<path d="M304.739 46.3101H300.78V364.06H304.739V46.3101Z" fill="#A05A2C"/>
<path d="M339.824 48.0408H335.864V365.791H339.824V48.0408Z" fill="#A05A2C"/>
<path d="M394.836 44.8025H91.0587V56.0017H394.836V44.8025Z" fill="#28170B"/>
<path d="M384.197 80.1281C377.537 67.4507 376.072 52.6048 380.12 38.8307C384.168 25.0565 393.402 13.4726 405.805 6.60732C418.208 -0.257963 432.775 -1.84719 446.324 2.18651C459.874 6.22021 471.307 15.5493 478.128 28.1376C484.949 40.7259 486.603 55.5512 482.731 69.3777C478.859 83.2042 469.774 94.9091 457.459 101.938C445.144 108.966 430.599 110.748 416.999 106.894C403.399 103.04 391.848 93.8625 384.868 81.3654" fill="#A05A2C"/>
<path d="M30.8631 53.202C30.8631 53.202 40.6624 -22.3924 92.4586 18.2046C144.255 58.8016 75.6598 358.379 75.6598 358.379C75.6598 358.379 -60.1301 517.968 75.6598 558.565C211.45 599.162 320.642 578.163 320.642 578.163" fill="#784421"/>
<path d="M453.447 53.1945C453.447 53.1945 443.648 -22.3999 391.852 18.1971C340.056 58.7941 408.651 358.372 408.651 358.372C408.651 358.372 544.44 517.96 408.651 558.557C272.861 599.154 163.669 578.156 163.669 578.156" fill="#A05A2C"/>
<path d="M27.2167 71.6009C23.6848 64.5924 22.9074 56.3852 25.0543 48.7704C27.2012 41.1557 32.098 34.7518 38.6759 30.9564C45.2538 27.1611 52.9787 26.2825 60.1645 28.5125C67.3503 30.7424 73.4135 35.8998 77.0308 42.859C80.6481 49.8182 81.5257 58.014 79.4721 65.6577C77.4185 73.3014 72.6004 79.7722 66.0694 83.6579C59.5385 87.5436 51.825 88.5285 44.6125 86.3978C37.4001 84.267 31.2743 79.1936 27.5722 72.2849" fill="#A05A2C"/>
<path d="M408.608 68.7122C405.076 61.7037 404.298 53.4965 406.445 45.8817C408.592 38.267 413.489 31.8631 420.067 28.0678C426.645 24.2724 434.37 23.3939 441.556 25.6238C448.741 27.8538 454.805 33.0111 458.422 39.9703C462.039 46.9295 462.917 55.1253 460.863 62.769C458.81 70.4127 453.991 76.8836 447.46 80.7692C440.93 84.6549 433.216 85.6398 426.004 83.5091C418.791 81.3783 412.665 76.3049 408.963 69.3962" fill="#784421"/>
</svg>
